<?xml version="1.0" encoding="UTF-8"?>
<svg id="_Шар_2" data-name="Шар 2" xmlns="http://www.w3.org/2000/svg" viewBox="0 0 27.77 32.58">
  <g id="_Шар_1-2" data-name="Шар 1">
    <path fill="#F14108" d="M21.08,12.44c0,.31,0,.62,0,.93,0,0,0,.02.01.04h.93s0,.06,0,.09c0,.56,0,1.12.01,1.67,0,.05,0,.09,0,.15.32.02.62,0,.94.01v3.81c-.08.02-.83.03-.95,0v-.95h-.94s0-.06,0-.09c0-.56,0-1.12-.01-1.67,0-.04,0-.09,0-.14h-.94v-.96c-.32,0-.63,0-.95,0-.01-.11,0-.21,0-.31,0-.1,0-.2,0-.31v-.31c-.08-.03-.84-.03-.96,0v.94h-.94c0,.64-.01,1.27-.02,1.91h-.94c-.02.11,0,.22-.01.32,0,.11,0,.21,0,.32v.33c-.65.02-1.28-.02-1.92,0v-5.75h-2.87v.95h-.96c0,.32,0,.64,0,.96-.05,0-.09,0-.13,0-.23,0-.46,0-.68,0-.04,0-.08,0-.14,0v1.89s-.09,0-.12,0c-.24,0-.47,0-.71,0-.04,0-.08,0-.12,0,0,.04,0,.08,0,.11,0,.56,0,1.12-.01,1.68,0,.04,0,.08,0,.13-.16.02-.32,0-.47,0-.15,0-.3,0-.45,0,0,.03-.01.06-.02.08,0,.01,0,.02,0,.03,0,.56,0,1.13-.01,1.69,0,.32,0,.63,0,.95,0,.03,0,.06,0,.11h-.92s-.01.07-.01.1c0,.49-.01.98-.02,1.47,0,.4,0,.81,0,1.21,0,.31,0,.61,0,.92,0,.1,0,.11-.11.11-.23,0-.46,0-.69,0-.04,0-.08,0-.13,0,0,.04,0,.07,0,.1,0,.33,0,.65,0,.98,0,.57,0,1.14,0,1.71,0,.31-.01.62-.02.94,0,.1,0,.11-.11.11-.22,0-.45,0-.67,0-.04,0-.09,0-.15.01,0,1.28-.01,2.55-.02,3.82-.04,0-.07,0-.1,0-.56,0-1.12,0-1.68.01-.29,0-.58,0-.87,0-.36,0-.72,0-1.08-.01-.02,0-.04,0-.07,0,0-.03,0-.06,0-.09,0-.9,0-1.8,0-2.7,0-.3,0-.61.01-.91,0-.03,0-.06,0-.1.31-.02.61,0,.91-.01,0-.03.01-.05.02-.08,0-.01,0-.03,0-.04,0-.54,0-1.09,0-1.63,0-.34,0-.69,0-1.03,0-.03,0-.06,0-.1.1-.02.2,0,.3,0,.11,0,.21,0,.32,0h.31s0-.06,0-.09c0,0,0-.01,0-.02,0-.57,0-1.14,0-1.71,0-.32,0-.63,0-.95,0-.03,0-.06,0-.1h.92s.01-.06.02-.08c0-.02,0-.04,0-.05v-1.68s0-.07,0-.11c.05,0,.09-.01.13-.01.23,0,.46,0,.69,0,.11,0,.11,0,.11-.11,0-.55,0-1.1.01-1.65,0-.33,0-.65,0-.98,0-.03,0-.06,0-.1.04,0,.08,0,.11,0,.24,0,.47,0,.71,0h.12c0-.64.01-1.27.02-1.91h.93s0-.06,0-.08c0-.56.01-1.13.02-1.69,0-.04,0-.08,0-.12.05,0,.09,0,.13,0,.22,0,.44,0,.66,0,.04,0,.09,0,.14-.01v-.96c.11-.01.21,0,.32,0,.1,0,.2,0,.31,0h.33v-.97c.32,0,.62,0,.94,0,0-.04,0-.08,0-.11,0-.22,0-.44,0-.65,0-.19-.01-.19.19-.19.22,0,.44,0,.65,0,.04,0,.08,0,.12,0v-1.88s-.05,0-.08,0c-.01,0-.03,0-.04,0-.56,0-1.12,0-1.68,0-.03,0-.06,0-.09,0-.02-.1,0-.2,0-.3,0-.11,0-.21,0-.32v-.31s-.08,0-.11,0c-.53,0-1.07,0-1.6-.01-.66,0-1.32,0-1.98,0-.33,0-.67,0-1,0-.31,0-.62,0-.93.01-.11,0-.11,0-.11.11,0,.22,0,.45,0,.67,0,.03,0,.06,0,.09,0,.03-.02.05-.06.05-.02,0-.04,0-.06,0H.11s-.07,0-.11,0v-.96c.1,0,.21,0,.31,0,.1,0,.2,0,.31,0h.32v-.95c.11-.03.22-.01.32-.01.1,0,.2,0,.31,0h.33c0-.16,0-.32,0-.48,0-.16,0-.31,0-.48h.95v-.95c.33-.01.64,0,.97-.01,0-.32,0-.62,0-.94.03,0,.06,0,.08-.01.02,0,.04,0,.05,0,.56,0,1.13,0,1.69,0,.61,0,1.22,0,1.83-.01.34,0,.69,0,1.03,0,.32,0,.63,0,.95,0,.03,0,.06,0,.1,0,0,.04,0,.08,0,.12,0,.24,0,.48,0,.72,0,.1,0,.1.1.1.55,0,1.1.02,1.65.03.04,0,.08,0,.12,0,.03-.09.03-.8.01-.95-.04,0-.08,0-.12,0-.23,0-.46,0-.68,0h-.14v-.95c-.11-.01-.22,0-.32,0-.11,0-.21,0-.32,0h-.33s-.01-.09-.01-.13c0-.23,0-.46,0-.68,0-.04,0-.08,0-.12-.03,0-.05-.01-.08-.01-.53,0-1.06-.02-1.6-.02-.07,0-.14,0-.22,0,0-.32,0-.62,0-.94-.04,0-.07,0-.09,0-.55,0-1.09,0-1.64,0-.34,0-.68,0-1.02,0-.03,0-.06,0-.09,0-.02-.09-.03-.84,0-.95.31,0,.62,0,.95,0,0-.05,0-.09,0-.13,0-.23,0-.46,0-.68,0-.12,0-.12.11-.12C7.07,0,8.29,0,9.5,0c.3,0,.6,0,.89,0,.04,0,.08,0,.12,0,0,.05,0,.09,0,.13,0,.22,0,.45,0,.67,0,.04,0,.08,0,.13.96,0,1.9.01,2.86.02.01.11,0,.22,0,.32,0,.1,0,.2,0,.31v.33h.96c0,.32,0,.64,0,.96h.94s.01.06.01.08c0,.02,0,.05,0,.07,0,.56,0,1.12,0,1.67,0,.03,0,.06,0,.1.04,0,.08.01.12.01.23,0,.46.02.69,0,.35-.03.69-.01,1.04-.02.02,0,.03,0,.06,0,0-.04,0-.08,0-.12,0-.24,0-.47,0-.71,0-.11,0-.11.11-.11.55,0,1.11,0,1.66,0,.94,0,1.88,0,2.82,0,.35,0,.69,0,1.04,0,.02,0,.05,0,.09,0,0,.04,0,.07,0,.11,0,.23,0,.46,0,.69v.13h1.9c.03.09.03.8.01.97h-.95v.94s-.06.01-.09.01c-.55,0-1.11.01-1.66.02-.05,0-.09,0-.15,0,0,.05-.01.09-.01.13,0,.23,0,.46,0,.68,0,.04,0,.08,0,.13h-.96v.96c.31.01.62,0,.95,0v.94c.33,0,.64,0,.96,0,.32,0,.63,0,.96,0,.01.32,0,.63,0,.95h.95c.03.11.01.21.01.31,0,.11,0,.21,0,.32v.31s.09,0,.12,0c.19,0,.39,0,.58,0,.09,0,.19-.02.28.03.02.01.06,0,.08,0,.24,0,.48,0,.72,0,.1,0,.1,0,.1.1.01.52.02,1.04.03,1.56,0,.07,0,.14,0,.22.05,0,.09,0,.13,0,.23,0,.46,0,.68,0,.04,0,.08,0,.13,0v1.92h-.96c-.01-.15,0-.31,0-.46,0-.15,0-.31,0-.47-.04,0-.07-.01-.1-.01-.55,0-1.11-.01-1.66-.02-.04,0-.08,0-.14,0v-.94s-.06,0-.09,0c-.56,0-1.13-.01-1.69-.02-.04,0-.08,0-.13,0v-.93s-.08,0-.12,0c-.56,0-1.12,0-1.68,0-.04,0-.08,0-.13,0,0-.27,0-.55,0-.82,0-.04,0-.08,0-.12h-.95v.94h.96Z"/>
  </g>
</svg>